<svg width="64" height="64" viewBox="0 0 64 64" fill="none" xmlns="http://www.w3.org/2000/svg">
<g clip-path="url(#clip0_14_41)">
<path d="M58.5519 19.7996L44.6454 17.3362L37.7613 4.67303C37.1468 3.54377 36.2211 2.62639 35.0843 2.02014C31.8899 0.316258 27.9049 1.52889 26.2007 4.72403L19.5611 17.188L17.0677 17.6513C16.389 17.7776 15.941 18.43 16.0671 19.1087C16.1932 19.7875 16.8461 20.235 17.5245 20.1093L19.8338 19.6802L21.5196 22.0006C19.4515 23.7081 17.8126 25.9171 16.7882 28.4387L3.18715 24.0195C3.3484 23.7794 3.53566 23.5542 3.74903 23.3488C4.36091 22.7603 5.12604 22.3827 5.96179 22.2572C5.97604 22.2551 5.99041 22.2527 6.00466 22.25L6.46254 22.1647C7.14129 22.0385 7.58917 21.386 7.46279 20.7072C7.33642 20.0283 6.68354 19.5805 6.00529 19.707L5.56779 19.7883C4.22541 19.9947 2.99765 20.6026 2.0159 21.547C0.75077 22.7638 0.035267 24.4007 0.00126682 26.156C-0.0327333 27.9112 0.618644 29.5747 1.83665 30.8408L11.6454 41.0143L9.82518 54.8915C9.5433 56.3104 9.7293 57.7476 10.3642 59.0512C11.5027 61.3894 13.8522 62.7516 16.2932 62.7516C17.2592 62.7516 18.2393 62.5384 19.1647 62.0878L31.8553 55.9105L44.8746 62.1128C46.0276 62.6631 47.3182 62.8599 48.6071 62.6815C52.198 62.1849 54.7151 58.8595 54.2183 55.2667L52.2628 41.2735L61.9397 31.0665C62.9774 30.0868 63.6553 28.8252 63.9013 27.416C64.5255 23.8401 62.1244 20.4232 58.5519 19.7996ZM60.6359 23.7758L46.8391 28.2587C45.8773 25.9705 44.4061 23.9475 42.5683 22.3316L44.3863 19.8293L58.1189 22.2618C59.1566 22.443 60.0347 23.0035 60.6359 23.7758ZM49.8118 41.7975L51.742 55.611C51.8847 56.6425 51.6255 57.6384 51.0853 58.441L42.5772 46.7306C44.4059 45.1201 45.8713 43.1064 46.8317 40.8293L49.8118 41.7975ZM35.5651 5.86753L42.3594 18.3658L40.5703 20.8283C38.3795 19.4297 35.833 18.5412 33.0993 18.3325V3.90102C33.3744 3.97877 33.6454 4.08602 33.9078 4.2259C34.612 4.60152 35.1853 5.1694 35.5651 5.86753ZM21.8521 18.2047L28.4069 5.90003C28.8966 4.9819 29.691 4.32852 30.5993 3.99702V18.3326C28.0447 18.528 25.6542 19.3176 23.5644 20.5616L21.8521 18.2047ZM31.8504 20.785C39.4322 20.785 45.6004 26.9532 45.6004 34.535C45.6004 42.1168 39.4322 48.2851 31.8504 48.2851C24.2686 48.2851 18.1003 42.1168 18.1003 34.535C18.1003 26.9532 24.2686 20.785 31.8504 20.785ZM13.0664 58.6841C12.8931 58.4624 12.7398 58.2197 12.6118 57.9567C12.2138 57.1394 12.1002 56.2376 12.2832 55.3491C12.2894 55.3195 12.2944 55.2895 12.2983 55.2595L14.0997 41.525L16.7953 40.649C17.8187 43.1597 19.4516 45.3593 21.5105 47.0618L13.0664 58.6841ZM3.63741 29.1067C2.93465 28.3762 2.53665 27.4312 2.50278 26.4257L16.0291 30.8208C15.749 32.0141 15.6003 33.2575 15.6003 34.535C15.6003 35.8193 15.7507 37.0689 16.0337 38.2679L13.3202 39.1497L3.63741 29.1067ZM18.0702 59.8399C17.1211 60.3021 16.0788 60.3619 15.1378 60.0864L23.5542 48.5023C25.6466 49.7498 28.0407 50.5416 30.5994 50.7373V53.7413L18.0702 59.8399ZM48.2646 60.205C47.4621 60.3164 46.6617 60.1957 45.9506 59.8561L33.0993 53.734V50.7376C35.8373 50.5286 38.3874 49.6377 40.5804 48.2353L49.1203 59.9896C48.8488 60.0901 48.5629 60.1637 48.2646 60.205ZM61.4384 26.9859C61.2845 27.8682 60.8577 28.6566 60.2049 29.266C60.1862 29.2835 60.1681 29.3014 60.1505 29.32L50.5773 39.4175L47.6208 38.4569C47.9334 37.2004 48.1004 35.8869 48.1004 34.535C48.1004 33.1899 47.9351 31.8828 47.6254 30.6319L61.4959 26.1251C61.5069 26.408 61.489 26.696 61.4384 26.9859Z" fill="#FF2E63"/>
<path d="M31.8503 45.7848C38.0537 45.7848 43.1004 40.7381 43.1004 34.5348C43.1004 28.3316 38.0537 23.2849 31.8503 23.2849C25.647 23.2849 20.6003 28.3316 20.6003 34.5348C20.6003 40.7381 25.647 45.7848 31.8503 45.7848ZM31.8503 25.7848C36.6752 25.7848 40.6004 29.7101 40.6004 34.5348C40.6004 39.3596 36.6752 43.2848 31.8503 43.2848C27.0255 43.2848 23.1003 39.3596 23.1003 34.5348C23.1003 29.7101 27.0255 25.7848 31.8503 25.7848Z" fill="#346CD9"/>
<path d="M30.4644 38.2848C29.7741 38.2848 29.2144 38.8446 29.2144 39.5348C29.2144 40.2251 29.7741 40.7848 30.4644 40.7848H33.2361C33.9264 40.7848 34.4861 40.2251 34.4861 39.5348C34.4861 38.8446 33.9264 38.2848 33.2361 38.2848H33.1003V29.5349C33.1003 29.0884 32.862 28.6757 32.4753 28.4524C32.0885 28.2291 31.612 28.2291 31.2253 28.4524L29.8394 29.2526C29.2415 29.5978 29.0366 30.3623 29.3819 30.9601C29.6374 31.4026 30.122 31.6298 30.6003 31.5779V38.2847H30.4644V38.2848Z" fill="#346CD9"/>
<path d="M11.7654 21.158C12.4556 21.158 13.0154 20.5983 13.0154 19.908C13.0154 19.2178 12.4556 18.658 11.7654 18.658H11.7644C11.0741 18.658 10.5149 19.2178 10.5149 19.908C10.5149 20.5983 11.0751 21.158 11.7654 21.158Z" fill="#FF2E63"/>
</g>
<defs>
<clipPath id="clip0_14_41">
<rect width="64" height="64" fill="white"/>
</clipPath>
</defs>
</svg>
