<svg width="64" height="64" viewBox="0 0 64 64" fill="none" xmlns="http://www.w3.org/2000/svg">
<g clip-path="url(#clip0_14_0)">
<path d="M23.5811 31.9984H16V34.665H48V31.9984H40.4566C42.7689 30.3698 44.6058 28.0741 45.6665 25.3318H52.8L57.1986 30.2238C57.4517 30.5049 57.8124 30.6654 58.1906 30.6651H62.6666V27.9985H58.784L54.3814 23.1065C54.1283 22.8254 53.7676 22.6649 53.3894 22.6651H44C43.2636 22.6651 42.6666 22.0681 42.6666 21.3318C42.6666 19.1226 44.4575 17.3318 46.6666 17.3318H48C48.7364 17.3318 49.3334 17.9288 49.3334 18.6651C49.3334 19.4015 49.9304 19.9985 50.6668 19.9985H58.6668V17.3319H51.7721C51.205 15.7349 49.6948 14.6673 48.0001 14.6653H46.6668C46.3376 14.6656 46.0145 14.6909 45.6981 14.7373C45.1286 13.2603 44.3237 11.887 43.3182 10.668L46.0508 9.18926L51.2094 12.9893L52.7907 10.8373L46.9494 6.53589C46.5338 6.23026 45.9791 6.19189 45.5254 6.43726L34.7574 12.265C34.4841 12.4134 34.1781 12.4911 33.8671 12.4913C32.8363 12.4915 32.0002 11.656 32 10.625C31.9943 9.98889 32.3155 9.39426 32.8506 9.05039L46.144 2.73839L62.3534 6.63176L62.9748 4.03976L46.3081 0.0397627C46.0121 -0.0332373 45.7 -0.00073725 45.4255 0.131763L34.1437 5.48776C33.444 5.38514 32.7376 5.33251 32.0296 5.33176C23.9295 5.32364 17.3564 11.8835 17.3482 19.9836C17.3431 24.9498 19.8073 29.3413 23.5811 31.9984ZM20.252 17.6105C21.2711 12.5914 25.2859 8.94589 30.0549 8.15676C29.5799 8.88526 29.3146 9.74714 29.3178 10.6474C29.3186 10.8886 29.3386 11.1251 29.3757 11.356C27.7586 12.2721 26.6666 14.0073 26.6666 15.9985C26.6666 18.944 29.0545 21.3319 32 21.3319C33.4727 21.3319 34.6666 22.5258 34.6666 23.9985C34.6666 25.4713 33.4727 26.665 32 26.665C30.5273 26.665 29.3334 25.4711 29.3334 23.9984H26.6667C26.6667 26.4835 28.3665 28.5716 30.6667 29.1636V30.665H33.3334V29.1638C35.6336 28.5716 37.3334 26.4836 37.3334 23.9985C37.3334 21.053 34.9455 18.6651 32 18.6651C30.5273 18.6651 29.3334 17.4713 29.3334 15.9985C29.3334 15.0545 29.8253 14.2271 30.5653 13.7531C31.3948 14.6261 32.5674 15.1696 33.8667 15.1651C34.136 15.1648 34.4036 15.1393 34.6668 15.0916V17.3318H37.3334V13.9066L40.9193 11.966C41.8915 13.0464 42.6595 14.2943 43.1871 15.6483C41.2775 16.8209 40.0029 18.927 40 21.3316C40 23.1371 41.1965 24.6626 42.8395 25.16C40.8806 29.3024 36.681 32.0138 32 31.9983C31.202 31.9975 30.4061 31.917 29.6241 31.7583C23.1292 30.4396 18.9333 24.1054 20.252 17.6105Z" fill="#346CD9"/>
<path d="M61.3334 33.3317V49.3317C61.3334 50.0681 60.7364 50.6651 60 50.6651H4C3.26363 50.6651 2.66663 50.0681 2.66663 49.3317V11.9984C2.66663 11.262 3.26363 10.665 4 10.665H17.3334V7.99835H4C1.79087 7.99835 0 9.78923 0 11.9984V49.3317C0 51.5409 1.79087 53.3317 4 53.3317H21.8419L17.8419 61.3317H14.6666V63.9984H49.3332V61.3317H46.1571L42.1571 53.3317H60C62.2091 53.3317 64 51.5409 64 49.3317V33.3317H61.3334ZM43.1758 61.3317H20.8232L24.8232 53.3317H39.1759L43.1758 61.3317Z" fill="#FF2E63"/>
<path d="M5.33337 41.3318V46.6652C5.33337 47.4015 5.93037 47.9985 6.66675 47.9985H12V45.3319H8V41.3319H5.33337V41.3318Z" fill="#FF2E63"/>
<path d="M17.3332 45.3318H14.6666V47.9984H17.3332V45.3318Z" fill="#FF2E63"/>
<path d="M56 45.3318H52V47.9984H57.3334C58.0697 47.9984 58.6668 47.4014 58.6668 46.665V41.3317H56V45.3318Z" fill="#FF2E63"/>
<path d="M49.3332 45.3318H46.6666V47.9984H49.3332V45.3318Z" fill="#FF2E63"/>
<path d="M14.6666 13.3317H9.33337C7.12425 13.3317 5.33337 15.1226 5.33337 17.3317V38.665H8V17.3317C8 16.5954 8.597 15.9984 9.33337 15.9984H14.6667V13.3317H14.6666Z" fill="#FF2E63"/>
<path d="M44 45.3318H20V47.9984H44V45.3318Z" fill="#FF2E63"/>
</g>
<defs>
<clipPath id="clip0_14_0">
<rect width="64" height="64" fill="white"/>
</clipPath>
</defs>
</svg>
