<svg width="64" height="64" viewBox="0 0 64 64" fill="none" xmlns="http://www.w3.org/2000/svg">
<g clip-path="url(#clip0_14_28)">
<path d="M16.4023 27.1044C16.7314 27.1044 17.0537 26.9706 17.2861 26.7382C17.5185 26.5053 17.6523 26.183 17.6523 25.8544C17.6523 25.5253 17.5185 25.2031 17.2861 24.9706C17.0537 24.7382 16.7314 24.6044 16.4023 24.6044C16.0722 24.6044 15.7514 24.7382 15.5185 24.9706C15.2861 25.2031 15.1523 25.5253 15.1523 25.8544C15.1523 26.183 15.2861 26.5053 15.5185 26.7382C15.7514 26.9706 16.0737 27.1044 16.4023 27.1044Z" fill="#346CD9"/>
<path d="M34.3085 25.4492C34.0751 25.2167 33.7538 25.0829 33.4238 25.0829C33.0952 25.0829 32.7724 25.2167 32.54 25.4492C32.3076 25.6816 32.1738 26.0043 32.1738 26.3329C32.1738 26.6616 32.3076 26.9843 32.54 27.2167C32.7724 27.4492 33.0952 27.5829 33.4238 27.5829C33.7538 27.5829 34.0751 27.4492 34.3085 27.2167C34.541 26.9843 34.6738 26.663 34.6738 26.3329C34.6738 26.0043 34.541 25.6816 34.3085 25.4492Z" fill="#346CD9"/>
<path d="M37.7997 23.2079C38.1288 23.2079 38.4511 23.0742 38.6835 22.8417C38.9159 22.6093 39.0488 22.2866 39.0488 21.9579C39.0488 21.6293 38.9159 21.3066 38.6835 21.0742C38.4511 20.8417 38.1288 20.7079 37.7997 20.7079C37.4702 20.7079 37.1474 20.8417 36.915 21.0742C36.6826 21.3066 36.5488 21.6293 36.5488 21.9579C36.5488 22.2866 36.6826 22.6093 36.915 22.8417C37.1474 23.0742 37.4702 23.2079 37.7997 23.2079Z" fill="#346CD9"/>
<path d="M60.2499 30.7495H56.7621L62.9017 24.6098C63.6097 23.9013 63.9999 22.9594 63.9999 21.958C63.9999 20.9565 63.6097 20.0146 62.9017 19.3066L57.3329 13.7378C56.8451 13.25 56.0536 13.25 55.5653 13.7378C54.8573 14.4463 53.9154 14.8364 52.914 14.8364C51.912 14.8364 50.9706 14.4463 50.2621 13.7378C49.5536 13.0298 49.164 12.0879 49.164 11.0864C49.164 10.0845 49.5541 9.14305 50.2621 8.43455C50.4965 8.20018 50.6283 7.88231 50.6283 7.55077C50.6283 7.21922 50.4965 6.90135 50.2621 6.66698L44.6938 1.09863C43.9853 0.390136 43.0439 0 42.0419 0C41.0405 0 40.0986 0.390136 39.3905 1.09863L18.7451 21.7436C18.2568 22.2314 18.2568 23.0229 18.7451 23.5112C19.2334 23.9995 20.0249 23.9995 20.5131 23.5112L41.1581 2.86621C41.3945 2.62988 41.7079 2.5 42.0419 2.5C42.3759 2.5 42.6899 2.62988 42.9257 2.86621L47.6986 7.63866C47.0253 8.65233 46.664 9.84178 46.664 11.0864C46.664 12.7558 47.3139 14.3252 48.4945 15.5058C49.6752 16.686 51.2445 17.3364 52.914 17.3364C54.1586 17.3364 55.3475 16.9751 56.3617 16.3017L61.1342 21.0742C61.6215 21.5615 61.6215 22.3545 61.1342 22.8418L53.2265 30.7495H47.7465L51.8534 26.6425C52.3412 26.1542 52.3412 25.3627 51.8534 24.875L39.1254 12.1469C38.6371 11.6587 37.8456 11.6587 37.3573 12.1469L18.7548 30.7495H3.74999C1.68213 30.7495 0 32.4316 0 34.4994V42.3744C0 43.0644 0.559569 43.6244 1.25 43.6244C3.31786 43.6244 4.99999 45.3066 4.99999 47.3744C4.99999 49.4418 3.31786 51.1244 1.25 51.1244C0.559569 51.1244 0 51.684 0 52.3744V60.2494C0 62.3168 1.68213 63.9994 3.74999 63.9994H60.2499C62.3178 63.9994 63.9999 62.3168 63.9999 60.2494V52.3744C63.9999 51.684 63.4403 51.1244 62.7499 51.1244C60.682 51.1244 58.9999 49.4418 58.9999 47.3744C58.9999 45.3066 60.682 43.6244 62.7499 43.6244C63.4403 43.6244 63.9999 43.0644 63.9999 42.3744V34.4994C63.9999 32.4316 62.3178 30.7495 60.2499 30.7495ZM38.2411 14.7983L49.2016 25.7587L44.2109 30.7495H39.2612L42.9257 27.0844C43.414 26.5966 43.414 25.8051 42.9257 25.3168C42.4379 24.8286 41.6464 24.8286 41.1581 25.3168L35.7255 30.749H22.2905L38.2411 14.7983ZM61.4999 41.2499C58.6508 41.8305 56.4999 44.3559 56.4999 47.3744C56.4999 50.3925 58.6508 52.9179 61.4999 53.4989V60.2494C61.4999 60.9384 60.9393 61.4994 60.2499 61.4994H3.74999C3.06054 61.4994 2.5 60.9384 2.5 60.2494V53.4989C5.34911 52.9179 7.49999 50.3925 7.49999 47.3744C7.49999 44.3559 5.34911 41.831 2.5 41.2499V34.4994C2.5 33.81 3.06054 33.2494 3.74999 33.2494H60.2499C60.9393 33.2494 61.4999 33.81 61.4999 34.4994V41.2499Z" fill="#FF2E63"/>
<path d="M26.6962 45.2582C26.9287 45.0253 27.0625 44.7031 27.0625 44.3744C27.0625 44.0453 26.9287 43.7231 26.6962 43.4907C26.4638 43.2582 26.1411 43.1245 25.8125 43.1245C25.4838 43.1245 25.1611 43.2582 24.9287 43.4907C24.6962 43.7231 24.5625 44.0453 24.5625 44.3744C24.5625 44.7031 24.6962 45.0253 24.9287 45.2582C25.1611 45.4907 25.4838 45.6244 25.8125 45.6244C26.1411 45.6244 26.4638 45.4907 26.6962 45.2582Z" fill="#346CD9"/>
<path d="M39.0712 45.2582C39.3036 45.0253 39.4374 44.7031 39.4374 44.3744C39.4374 44.0453 39.3036 43.7231 39.0712 43.4907C38.8388 43.2582 38.516 43.1245 38.1874 43.1245C37.8588 43.1245 37.5361 43.2582 37.3036 43.4907C37.0712 43.7231 36.9374 44.0453 36.9374 44.3744C36.9374 44.7031 37.0712 45.0253 37.3036 45.2582C37.5361 45.4907 37.8588 45.6244 38.1874 45.6244C38.516 45.6244 38.8388 45.4907 39.0712 45.2582Z" fill="#346CD9"/>
<path d="M32.8837 45.2582C33.1161 45.0253 33.2499 44.7031 33.2499 44.3744C33.2499 44.0453 33.1161 43.7231 32.8837 43.4907C32.6513 43.2582 32.3285 43.1245 31.9999 43.1245C31.6713 43.1245 31.3486 43.2582 31.1161 43.4907C30.8837 43.7231 30.7499 44.0453 30.7499 44.3744C30.7499 44.7031 30.8837 45.0253 31.1161 45.2582C31.3486 45.4907 31.6713 45.6244 31.9999 45.6244C32.3285 45.6244 32.6513 45.4907 32.8837 45.2582Z" fill="#346CD9"/>
<path d="M19.625 45.6244C19.9536 45.6244 20.2763 45.4907 20.5088 45.2582C20.7412 45.0253 20.875 44.7031 20.875 44.3744C20.875 44.0453 20.7412 43.7231 20.5088 43.4907C20.2763 43.2582 19.9536 43.1245 19.625 43.1245C19.2964 43.1245 18.9736 43.2582 18.7412 43.4907C18.5088 43.7231 18.375 44.0453 18.375 44.3744C18.375 44.7031 18.5088 45.0253 18.7412 45.2582C18.9736 45.4907 19.2964 45.6244 19.625 45.6244Z" fill="#346CD9"/>
<path d="M45.2587 45.2582C45.4911 45.0253 45.6249 44.7031 45.6249 44.3744C45.6249 44.0453 45.4911 43.7231 45.2587 43.4907C45.0263 43.2582 44.7035 43.1245 44.3749 43.1245C44.0463 43.1245 43.7235 43.2582 43.4911 43.4907C43.2587 43.7231 43.1249 44.0453 43.1249 44.3744C43.1249 44.7031 43.2587 45.0253 43.4911 45.2582C43.7235 45.4907 44.0463 45.6244 44.3749 45.6244C44.7035 45.6244 45.0263 45.4907 45.2587 45.2582Z" fill="#346CD9"/>
<path d="M19.625 51.6244H44.3749C45.0653 51.6244 45.6249 51.0643 45.6249 50.3744C45.6249 49.684 45.0653 49.1244 44.3749 49.1244H19.625C18.9345 49.1244 18.375 49.684 18.375 50.3744C18.375 51.0643 18.9345 51.6244 19.625 51.6244Z" fill="#FF2E63"/>
<path d="M24.165 55.1244C23.8364 55.1244 23.5136 55.2582 23.2812 55.4906C23.0488 55.723 22.915 56.0453 22.915 56.3744C22.915 56.703 23.0488 57.0253 23.2812 57.2582C23.5136 57.4906 23.8364 57.6244 24.165 57.6244C24.4951 57.6244 24.8164 57.4906 25.0488 57.2582C25.2827 57.0253 25.415 56.703 25.415 56.3744C25.415 56.0453 25.2827 55.723 25.0488 55.4906C24.8164 55.2582 24.4951 55.1244 24.165 55.1244Z" fill="#346CD9"/>
<path d="M50.9999 37.1245H13C12.3096 37.1245 11.75 37.684 11.75 38.3744V56.3744C11.75 57.0644 12.3096 57.6244 13 57.6244H18.207C18.8974 57.6244 19.457 57.0644 19.457 56.3744C19.457 55.684 18.8974 55.1244 18.207 55.1244H14.25V39.6244H49.7499V55.1244H29.457C28.7666 55.1244 28.207 55.684 28.207 56.3744C28.207 57.0644 28.7666 57.6244 29.457 57.6244H50.9999C51.6903 57.6244 52.2499 57.0644 52.2499 56.3744V38.3744C52.2499 37.684 51.6903 37.1245 50.9999 37.1245Z" fill="#FF2E63"/>
</g>
<defs>
<clipPath id="clip0_14_28">
<rect width="64" height="63.9999" fill="white"/>
</clipPath>
</defs>
</svg>
